<svg width="859" height="258" viewBox="0 0 859 258" fill="none" xmlns="http://www.w3.org/2000/svg">
<rect width="859" height="258" rx="30" fill="#4804AD"/>
<path d="M120.593 155V104.091H138.739C142.683 104.091 145.956 104.77 148.558 106.129C151.177 107.488 153.132 109.369 154.425 111.772C155.717 114.158 156.364 116.918 156.364 120.05C156.364 123.165 155.709 125.908 154.4 128.278C153.107 130.631 151.152 132.462 148.533 133.771C145.932 135.08 142.659 135.735 138.714 135.735H124.968V129.123H138.018C140.504 129.123 142.526 128.767 144.084 128.054C145.658 127.341 146.81 126.306 147.539 124.947C148.268 123.588 148.633 121.955 148.633 120.05C148.633 118.127 148.26 116.462 147.514 115.053C146.785 113.645 145.633 112.567 144.059 111.822C142.501 111.059 140.455 110.678 137.919 110.678H128.274V155H120.593ZM145.724 132.031L158.303 155H149.553L137.223 132.031H145.724ZM181.091 155.771C177.329 155.771 174.089 154.967 171.372 153.359C168.67 151.735 166.582 149.457 165.107 146.523C163.649 143.574 162.92 140.118 162.92 136.158C162.92 132.247 163.649 128.8 165.107 125.817C166.582 122.834 168.637 120.505 171.272 118.832C173.924 117.158 177.023 116.321 180.569 116.321C182.723 116.321 184.811 116.677 186.833 117.39C188.855 118.103 190.67 119.221 192.277 120.746C193.885 122.27 195.152 124.251 196.08 126.687C197.008 129.106 197.472 132.048 197.472 135.511V138.146H167.121V132.578H190.189C190.189 130.623 189.791 128.891 188.996 127.383C188.2 125.858 187.082 124.657 185.64 123.778C184.215 122.9 182.541 122.461 180.619 122.461C178.531 122.461 176.708 122.975 175.15 124.002C173.609 125.013 172.416 126.339 171.57 127.979C170.742 129.603 170.328 131.368 170.328 133.274V137.624C170.328 140.176 170.775 142.347 171.67 144.137C172.581 145.927 173.849 147.294 175.473 148.239C177.097 149.167 178.995 149.631 181.166 149.631C182.574 149.631 183.859 149.432 185.019 149.034C186.179 148.62 187.181 148.007 188.026 147.195C188.872 146.383 189.518 145.38 189.965 144.187L197 145.455C196.437 147.526 195.426 149.341 193.968 150.898C192.526 152.44 190.711 153.641 188.524 154.503C186.353 155.348 183.875 155.771 181.091 155.771ZM213.152 104.091V155H205.719V104.091H213.152ZM239.607 155.771C235.845 155.771 232.605 154.967 229.887 153.359C227.186 151.735 225.098 149.457 223.623 146.523C222.165 143.574 221.436 140.118 221.436 136.158C221.436 132.247 222.165 128.8 223.623 125.817C225.098 122.834 227.153 120.505 229.788 118.832C232.439 117.158 235.538 116.321 239.085 116.321C241.239 116.321 243.327 116.677 245.349 117.39C247.371 118.103 249.185 119.221 250.793 120.746C252.4 122.27 253.668 124.251 254.596 126.687C255.524 129.106 255.988 132.048 255.988 135.511V138.146H225.637V132.578H248.705C248.705 130.623 248.307 128.891 247.512 127.383C246.716 125.858 245.597 124.657 244.156 123.778C242.731 122.9 241.057 122.461 239.134 122.461C237.046 122.461 235.223 122.975 233.666 124.002C232.124 125.013 230.931 126.339 230.086 127.979C229.258 129.603 228.843 131.368 228.843 133.274V137.624C228.843 140.176 229.291 142.347 230.186 144.137C231.097 145.927 232.365 147.294 233.989 148.239C235.613 149.167 237.51 149.631 239.681 149.631C241.09 149.631 242.374 149.432 243.534 149.034C244.694 148.62 245.697 148.007 246.542 147.195C247.387 146.383 248.034 145.38 248.481 144.187L255.516 145.455C254.952 147.526 253.941 149.341 252.483 150.898C251.041 152.44 249.227 153.641 247.039 154.503C244.868 155.348 242.391 155.771 239.607 155.771ZM275.346 155.845C272.927 155.845 270.739 155.398 268.784 154.503C266.828 153.591 265.279 152.274 264.135 150.55C263.008 148.827 262.445 146.714 262.445 144.212C262.445 142.057 262.859 140.284 263.688 138.892C264.516 137.5 265.635 136.398 267.044 135.586C268.452 134.774 270.027 134.161 271.767 133.746C273.507 133.332 275.28 133.017 277.086 132.802C279.373 132.537 281.229 132.321 282.654 132.156C284.08 131.973 285.115 131.683 285.762 131.286C286.408 130.888 286.731 130.241 286.731 129.347V129.173C286.731 127.002 286.118 125.32 284.892 124.126C283.682 122.933 281.876 122.337 279.473 122.337C276.97 122.337 274.998 122.892 273.556 124.002C272.131 125.096 271.145 126.314 270.598 127.656L263.613 126.065C264.442 123.745 265.652 121.873 267.243 120.447C268.85 119.006 270.698 117.962 272.786 117.315C274.874 116.652 277.07 116.321 279.373 116.321C280.898 116.321 282.514 116.503 284.221 116.868C285.944 117.216 287.551 117.862 289.043 118.807C290.551 119.751 291.786 121.102 292.747 122.859C293.708 124.599 294.189 126.861 294.189 129.645V155H286.93V149.78H286.632C286.151 150.741 285.43 151.686 284.469 152.614C283.508 153.542 282.273 154.312 280.765 154.925C279.257 155.539 277.451 155.845 275.346 155.845ZM276.962 149.879C279.017 149.879 280.774 149.473 282.232 148.661C283.707 147.849 284.825 146.789 285.588 145.479C286.367 144.154 286.756 142.737 286.756 141.229V136.307C286.491 136.572 285.977 136.821 285.215 137.053C284.469 137.268 283.616 137.459 282.654 137.624C281.693 137.773 280.757 137.914 279.846 138.047C278.934 138.163 278.172 138.262 277.559 138.345C276.117 138.527 274.799 138.834 273.606 139.265C272.43 139.696 271.485 140.317 270.772 141.129C270.076 141.925 269.728 142.985 269.728 144.311C269.728 146.151 270.408 147.543 271.767 148.487C273.126 149.415 274.857 149.879 276.962 149.879ZM332.7 126.14L325.963 127.333C325.682 126.471 325.234 125.651 324.621 124.872C324.024 124.093 323.212 123.455 322.185 122.958C321.157 122.461 319.873 122.212 318.332 122.212C316.227 122.212 314.471 122.685 313.062 123.629C311.653 124.557 310.949 125.759 310.949 127.234C310.949 128.51 311.421 129.537 312.366 130.316C313.311 131.095 314.835 131.733 316.94 132.23L323.005 133.622C326.518 134.434 329.137 135.685 330.86 137.376C332.584 139.066 333.445 141.262 333.445 143.963C333.445 146.25 332.783 148.288 331.457 150.078C330.148 151.851 328.316 153.243 325.963 154.254C323.627 155.265 320.917 155.771 317.835 155.771C313.559 155.771 310.071 154.859 307.369 153.036C304.668 151.197 303.011 148.587 302.398 145.206L309.582 144.112C310.029 145.985 310.949 147.402 312.341 148.363C313.733 149.308 315.548 149.78 317.785 149.78C320.221 149.78 322.168 149.274 323.627 148.263C325.085 147.236 325.814 145.985 325.814 144.51C325.814 143.317 325.367 142.314 324.472 141.502C323.593 140.69 322.243 140.077 320.42 139.663L313.957 138.246C310.394 137.434 307.759 136.141 306.052 134.368C304.362 132.595 303.517 130.349 303.517 127.631C303.517 125.378 304.146 123.406 305.406 121.715C306.665 120.025 308.405 118.707 310.626 117.763C312.847 116.802 315.39 116.321 318.257 116.321C322.384 116.321 325.632 117.216 328.002 119.006C330.371 120.779 331.937 123.157 332.7 126.14ZM358.074 155.771C354.312 155.771 351.072 154.967 348.354 153.359C345.653 151.735 343.565 149.457 342.09 146.523C340.632 143.574 339.902 140.118 339.902 136.158C339.902 132.247 340.632 128.8 342.09 125.817C343.565 122.834 345.62 120.505 348.255 118.832C350.906 117.158 354.005 116.321 357.551 116.321C359.706 116.321 361.794 116.677 363.816 117.39C365.837 118.103 367.652 119.221 369.26 120.746C370.867 122.27 372.135 124.251 373.063 126.687C373.991 129.106 374.455 132.048 374.455 135.511V138.146H344.103V132.578H367.172C367.172 130.623 366.774 128.891 365.978 127.383C365.183 125.858 364.064 124.657 362.623 123.778C361.197 122.9 359.524 122.461 357.601 122.461C355.513 122.461 353.69 122.975 352.132 124.002C350.591 125.013 349.398 126.339 348.553 127.979C347.724 129.603 347.31 131.368 347.31 133.274V137.624C347.31 140.176 347.757 142.347 348.652 144.137C349.564 145.927 350.832 147.294 352.456 148.239C354.08 149.167 355.977 149.631 358.148 149.631C359.557 149.631 360.841 149.432 362.001 149.034C363.161 148.62 364.164 148.007 365.009 147.195C365.854 146.383 366.5 145.38 366.948 144.187L373.983 145.455C373.419 147.526 372.408 149.341 370.95 150.898C369.508 152.44 367.694 153.641 365.506 154.503C363.335 155.348 360.858 155.771 358.074 155.771ZM411.313 126.14L404.577 127.333C404.295 126.471 403.847 125.651 403.234 124.872C402.638 124.093 401.826 123.455 400.798 122.958C399.771 122.461 398.486 122.212 396.945 122.212C394.84 122.212 393.084 122.685 391.675 123.629C390.267 124.557 389.562 125.759 389.562 127.234C389.562 128.51 390.035 129.537 390.979 130.316C391.924 131.095 393.448 131.733 395.553 132.23L401.618 133.622C405.132 134.434 407.75 135.685 409.474 137.376C411.197 139.066 412.059 141.262 412.059 143.963C412.059 146.25 411.396 148.288 410.07 150.078C408.761 151.851 406.93 153.243 404.577 154.254C402.24 155.265 399.53 155.771 396.448 155.771C392.172 155.771 388.684 154.859 385.983 153.036C383.282 151.197 381.624 148.587 381.011 145.206L388.195 144.112C388.643 145.985 389.562 147.402 390.954 148.363C392.346 149.308 394.161 149.78 396.398 149.78C398.834 149.78 400.782 149.274 402.24 148.263C403.698 147.236 404.427 145.985 404.427 144.51C404.427 143.317 403.98 142.314 403.085 141.502C402.207 140.69 400.856 140.077 399.033 139.663L392.57 138.246C389.007 137.434 386.372 136.141 384.665 134.368C382.975 132.595 382.13 130.349 382.13 127.631C382.13 125.378 382.76 123.406 384.019 121.715C385.278 120.025 387.019 118.707 389.239 117.763C391.46 116.802 394.004 116.321 396.871 116.321C400.997 116.321 404.245 117.216 406.615 119.006C408.985 120.779 410.551 123.157 411.313 126.14Z" fill="white"/>
<a href="https://github.com/zamkara/Lenovo-Thinkpad-X250-Hackintosh/releases">
<rect fill="black" fill-opacity="0" y="0.142044" width="300.216" height="84.7159"/>
</a>
<rect x="483" y="85" width="274" height="88" rx="44" fill="url(#paint0_linear_72_2)"/>
<path d="M535.727 144H525.869V114.909H535.926C538.814 114.909 541.295 115.491 543.369 116.656C545.453 117.812 547.053 119.473 548.17 121.642C549.288 123.811 549.847 126.405 549.847 129.426C549.847 132.456 549.283 135.061 548.156 137.239C547.039 139.417 545.424 141.088 543.312 142.253C541.21 143.418 538.682 144 535.727 144ZM531.139 139.44H535.472C537.498 139.44 539.188 139.071 540.543 138.332C541.897 137.584 542.915 136.472 543.597 134.994C544.278 133.508 544.619 131.652 544.619 129.426C544.619 127.201 544.278 125.354 543.597 123.886C542.915 122.409 541.906 121.306 540.571 120.577C539.245 119.838 537.598 119.469 535.628 119.469H531.139V139.44ZM564.143 144.426C562.013 144.426 560.166 143.957 558.604 143.02C557.041 142.082 555.829 140.771 554.967 139.085C554.115 137.4 553.689 135.43 553.689 133.176C553.689 130.922 554.115 128.948 554.967 127.253C555.829 125.558 557.041 124.241 558.604 123.304C560.166 122.366 562.013 121.898 564.143 121.898C566.274 121.898 568.121 122.366 569.683 123.304C571.246 124.241 572.453 125.558 573.305 127.253C574.167 128.948 574.598 130.922 574.598 133.176C574.598 135.43 574.167 137.4 573.305 139.085C572.453 140.771 571.246 142.082 569.683 143.02C568.121 143.957 566.274 144.426 564.143 144.426ZM564.172 140.307C565.327 140.307 566.293 139.99 567.07 139.355C567.846 138.711 568.424 137.849 568.803 136.77C569.191 135.69 569.385 134.488 569.385 133.162C569.385 131.827 569.191 130.619 568.803 129.54C568.424 128.451 567.846 127.584 567.07 126.94C566.293 126.296 565.327 125.974 564.172 125.974C562.988 125.974 562.003 126.296 561.217 126.94C560.441 127.584 559.858 128.451 559.47 129.54C559.091 130.619 558.902 131.827 558.902 133.162C558.902 134.488 559.091 135.69 559.47 136.77C559.858 137.849 560.441 138.711 561.217 139.355C562.003 139.99 562.988 140.307 564.172 140.307ZM582.84 144L576.675 122.182H581.917L585.752 137.523H585.951L589.871 122.182H595.056L598.977 137.438H599.19L602.968 122.182H608.224L602.045 144H596.69L592.599 129.256H592.3L588.21 144H582.84ZM616.956 131.216V144H611.814V122.182H616.729V125.889H616.984C617.486 124.668 618.286 123.697 619.385 122.977C620.493 122.258 621.861 121.898 623.49 121.898C624.996 121.898 626.307 122.22 627.425 122.864C628.552 123.508 629.423 124.44 630.038 125.662C630.663 126.884 630.971 128.366 630.962 130.108V144H625.82V130.903C625.82 129.445 625.441 128.304 624.683 127.48C623.935 126.656 622.898 126.244 621.572 126.244C620.673 126.244 619.873 126.443 619.172 126.841C618.481 127.229 617.936 127.793 617.538 128.531C617.15 129.27 616.956 130.165 616.956 131.216ZM641.331 114.909V144H636.189V114.909H641.331ZM656.136 144.426C654.005 144.426 652.158 143.957 650.596 143.02C649.033 142.082 647.821 140.771 646.96 139.085C646.107 137.4 645.681 135.43 645.681 133.176C645.681 130.922 646.107 128.948 646.96 127.253C647.821 125.558 649.033 124.241 650.596 123.304C652.158 122.366 654.005 121.898 656.136 121.898C658.266 121.898 660.113 122.366 661.675 123.304C663.238 124.241 664.445 125.558 665.298 127.253C666.159 128.948 666.59 130.922 666.59 133.176C666.59 135.43 666.159 137.4 665.298 139.085C664.445 140.771 663.238 142.082 661.675 143.02C660.113 143.957 658.266 144.426 656.136 144.426ZM656.164 140.307C657.319 140.307 658.285 139.99 659.062 139.355C659.838 138.711 660.416 137.849 660.795 136.77C661.183 135.69 661.377 134.488 661.377 133.162C661.377 131.827 661.183 130.619 660.795 129.54C660.416 128.451 659.838 127.584 659.062 126.94C658.285 126.296 657.319 125.974 656.164 125.974C654.98 125.974 653.996 126.296 653.21 126.94C652.433 127.584 651.851 128.451 651.462 129.54C651.084 130.619 650.894 131.827 650.894 133.162C650.894 134.488 651.084 135.69 651.462 136.77C651.851 137.849 652.433 138.711 653.21 139.355C653.996 139.99 654.98 140.307 656.164 140.307ZM677.233 144.44C675.85 144.44 674.605 144.194 673.497 143.702C672.399 143.2 671.527 142.461 670.884 141.486C670.249 140.51 669.932 139.308 669.932 137.878C669.932 136.647 670.159 135.629 670.614 134.824C671.068 134.019 671.688 133.375 672.474 132.892C673.26 132.409 674.146 132.045 675.131 131.798C676.125 131.543 677.152 131.358 678.213 131.244C679.491 131.112 680.528 130.993 681.324 130.889C682.119 130.776 682.697 130.605 683.057 130.378C683.426 130.141 683.611 129.777 683.611 129.284V129.199C683.611 128.129 683.294 127.3 682.659 126.713C682.025 126.126 681.111 125.832 679.918 125.832C678.658 125.832 677.659 126.107 676.92 126.656C676.191 127.205 675.699 127.854 675.443 128.602L670.642 127.92C671.021 126.595 671.646 125.487 672.517 124.597C673.388 123.697 674.454 123.025 675.713 122.58C676.973 122.125 678.365 121.898 679.889 121.898C680.94 121.898 681.987 122.021 683.028 122.267C684.07 122.513 685.022 122.92 685.884 123.489C686.745 124.047 687.437 124.81 687.957 125.776C688.488 126.741 688.753 127.949 688.753 129.398V144H683.81V141.003H683.639C683.327 141.609 682.886 142.177 682.318 142.707C681.759 143.228 681.054 143.65 680.202 143.972C679.359 144.284 678.369 144.44 677.233 144.44ZM678.568 140.662C679.6 140.662 680.495 140.458 681.253 140.051C682.01 139.634 682.593 139.085 683 138.403C683.417 137.722 683.625 136.978 683.625 136.173V133.602C683.464 133.735 683.189 133.858 682.801 133.972C682.422 134.085 681.996 134.185 681.523 134.27C681.049 134.355 680.58 134.431 680.116 134.497C679.652 134.563 679.25 134.62 678.909 134.668C678.142 134.772 677.455 134.942 676.849 135.179C676.243 135.416 675.765 135.747 675.415 136.173C675.064 136.59 674.889 137.13 674.889 137.793C674.889 138.74 675.235 139.455 675.926 139.938C676.617 140.42 677.498 140.662 678.568 140.662ZM702.02 144.384C700.306 144.384 698.772 143.943 697.418 143.062C696.063 142.182 694.993 140.903 694.207 139.227C693.421 137.551 693.028 135.515 693.028 133.119C693.028 130.695 693.426 128.65 694.222 126.983C695.027 125.307 696.111 124.043 697.474 123.19C698.838 122.329 700.358 121.898 702.034 121.898C703.313 121.898 704.364 122.116 705.188 122.551C706.011 122.977 706.665 123.493 707.148 124.099C707.631 124.696 708.005 125.259 708.27 125.79H708.483V114.909H713.639V144H708.582V140.562H708.27C708.005 141.093 707.621 141.656 707.119 142.253C706.617 142.84 705.955 143.342 705.131 143.759C704.307 144.175 703.27 144.384 702.02 144.384ZM703.455 140.165C704.544 140.165 705.472 139.871 706.239 139.284C707.006 138.687 707.588 137.859 707.986 136.798C708.384 135.738 708.582 134.502 708.582 133.091C708.582 131.68 708.384 130.454 707.986 129.412C707.598 128.37 707.02 127.561 706.253 126.983C705.495 126.405 704.563 126.116 703.455 126.116C702.309 126.116 701.352 126.415 700.585 127.011C699.818 127.608 699.241 128.432 698.852 129.483C698.464 130.534 698.27 131.737 698.27 133.091C698.27 134.455 698.464 135.671 698.852 136.741C699.25 137.802 699.832 138.64 700.599 139.256C701.376 139.862 702.328 140.165 703.455 140.165Z" fill="#F1F1F1"/>
<defs>
<linearGradient id="paint0_linear_72_2" x1="620" y1="85" x2="620" y2="173" gradientUnits="userSpaceOnUse">
<stop stop-color="#FF00C7"/>
<stop offset="1" stop-color="#D500CD"/>
</linearGradient>
</defs>
</svg>
